<?xml version="1.0" standalone="no"?>
<!DOCTYPE svg PUBLIC "-//W3C//DTD SVG 20010904//EN"
 "http://www.w3.org/TR/2001/REC-SVG-20010904/DTD/svg10.dtd">
<svg version="1.0" xmlns="http://www.w3.org/2000/svg"
 width="1000.000000pt" height="1000.000000pt" viewBox="0 0 1000.000000 1000.000000"
 preserveAspectRatio="xMidYMid meet">
<metadata>
Created by potrace 1.11, written by Peter Selinger 2001-2013
</metadata>
<g transform="translate(0.000000,1000.000000) scale(0.100000,-0.100000)"
fill="#000000" stroke="none">
<path d="M4870 9237 c-3 -2 -31 -7 -63 -11 -198 -21 -444 -115 -625 -238 -106
-72 -285 -254 -354 -358 -31 -47 -110 -173 -176 -280 -140 -227 -654 -1059
-785 -1270 -49 -80 -129 -208 -177 -285 -48 -77 -136 -219 -195 -315 -59 -96
-136 -220 -170 -275 -34 -55 -158 -255 -275 -445 -117 -190 -262 -424 -322
-520 -61 -96 -99 -166 -87 -155 13 11 6 0 -15 -25 -21 -25 -91 -130 -155 -235
-151 -245 -648 -1049 -761 -1230 -254 -408 -431 -696 -458 -745 -61 -111 -106
-244 -148 -435 -3 -16 -8 -104 -9 -195 -3 -128 1 -189 15 -271 89 -504 432
-916 908 -1095 171 -64 284 -85 482 -89 214 -5 340 14 515 75 195 69 354 169
495 310 78 77 130 146 279 365 213 312 461 655 508 703 18 17 37 32 43 32 6 0
8 4 5 10 -3 6 0 10 8 10 8 0 22 10 33 21 66 74 347 256 520 339 235 112 532
199 764 225 30 3 68 8 84 11 15 4 103 7 195 8 281 4 501 -23 750 -95 441 -127
812 -353 1122 -687 125 -134 194 -231 445 -625 133 -210 217 -305 370 -420 82
-62 256 -158 334 -187 19 -6 44 -16 55 -20 34 -14 176 -48 254 -60 83 -14 298
-17 378 -7 158 21 330 74 468 143 395 201 672 566 761 1005 19 95 28 378 15
449 -5 25 -12 63 -15 85 -26 166 -104 348 -294 685 -215 381 -386 616 -611
840 -459 457 -1078 741 -1756 807 -104 10 -497 10 -600 0 -313 -31 -596 -103
-875 -223 -70 -30 -132 -54 -138 -54 -7 0 -12 -5 -12 -11 0 -5 -4 -8 -9 -5
-11 7 -42 -4 -37 -13 2 -3 -6 -7 -17 -7 -12 -1 -107 -31 -211 -68 -236 -82
-315 -99 -420 -91 -261 20 -483 122 -667 305 -416 412 -421 1062 -12 1486 99
102 283 220 401 255 23 6 42 16 42 20 0 4 8 8 18 8 9 0 82 9 162 20 80 10 181
23 225 26 44 4 89 9 100 11 23 4 290 14 525 18 132 3 181 8 245 25 369 102
654 419 730 811 20 108 14 352 -13 445 -27 95 -44 140 -82 214 -50 101 -396
658 -456 738 -188 246 -501 445 -799 507 -39 8 -84 18 -100 21 -39 8 -348 19
-355 12z m-693 -2943 c-3 -3 -12 -4 -19 -1 -8 3 -5 6 6 6 11 1 17 -2 13 -5z
m-80 -20 c-3 -3 -12 -4 -19 -1 -8 3 -5 6 6 6 11 1 17 -2 13 -5z m-1322 -434
c-3 -5 -12 -10 -18 -10 -7 0 -6 4 3 10 19 12 23 12 15 0z m-200 -100 c-3 -5
-12 -10 -18 -10 -7 0 -6 4 3 10 19 12 23 12 15 0z m-65 -34 c0 -2 -7 -7 -16
-10 -8 -3 -12 -2 -9 4 6 10 25 14 25 6z m-280 -160 c0 -2 -8 -10 -17 -17 -16
-13 -17 -12 -4 4 13 16 21 21 21 13z m-380 -280 c0 -2 -8 -10 -17 -17 -16 -13
-17 -12 -4 4 13 16 21 21 21 13z m2970 -1300 c0 -2 -8 -10 -17 -17 -16 -13
-17 -12 -4 4 13 16 21 21 21 13z m-230 -219 c0 -2 -15 -16 -32 -33 l-33 -29
29 33 c28 30 36 37 36 29z m-160 -170 c0 -2 -10 -12 -22 -23 l-23 -19 19 23
c18 21 26 27 26 19z m-210 -241 c0 -2 -8 -10 -17 -17 -16 -13 -17 -12 -4 4 13
16 21 21 21 13z m-100 -120 c0 -2 -8 -10 -17 -17 -16 -13 -17 -12 -4 4 13 16
21 21 21 13z m-80 -100 c0 -2 -8 -10 -17 -17 -16 -13 -17 -12 -4 4 13 16 21
21 21 13z m-310 -390 c0 -2 -8 -10 -17 -17 -16 -13 -17 -12 -4 4 13 16 21 21
21 13z m-250 -310 c0 -2 -8 -10 -17 -17 -16 -13 -17 -12 -4 4 13 16 21 21 21
13z m-70 -80 c0 -2 -8 -10 -17 -17 -16 -13 -17 -12 -4 4 13 16 21 21 21 13z"/>
</g>
</svg>
